<?xml version="1.0" encoding="UTF-8" standalone="no"?>
<!-- Created with Inkscape (http://www.inkscape.org/) -->

<svg
   xmlns:dc="http://purl.org/dc/elements/1.1/"
   xmlns:cc="http://creativecommons.org/ns#"
   xmlns:rdf="http://www.w3.org/1999/02/22-rdf-syntax-ns#"
   xmlns:svg="http://www.w3.org/2000/svg"
   xmlns="http://www.w3.org/2000/svg"
   xmlns:sodipodi="http://sodipodi.sourceforge.net/DTD/sodipodi-0.dtd"
   xmlns:inkscape="http://www.inkscape.org/namespaces/inkscape"
   version="1.1"
   id="svg4807"
   width="546"
   height="546"
   viewBox="0 0 546 546"
   sodipodi:docname="drop.svg"
   inkscape:version="0.92.1 r15371">
  <metadata
     id="metadata4813">
    <rdf:RDF>
      <cc:Work
         rdf:about="">
        <dc:format>image/svg+xml</dc:format>
        <dc:type
           rdf:resource="http://purl.org/dc/dcmitype/StillImage" />
        <dc:title></dc:title>
      </cc:Work>
    </rdf:RDF>
  </metadata>
  <defs
     id="defs4811" />
  <sodipodi:namedview
     pagecolor="#ffffff"
     bordercolor="#666666"
     borderopacity="1"
     objecttolerance="10"
     gridtolerance="10"
     guidetolerance="10"
     inkscape:pageopacity="0"
     inkscape:pageshadow="2"
     inkscape:window-width="1920"
     inkscape:window-height="1080"
     id="namedview4809"
     showgrid="false"
     inkscape:pagecheckerboard="true"
     inkscape:zoom="1.5174485"
     inkscape:cx="126.87747"
     inkscape:cy="301.63355"
     inkscape:window-x="1366"
     inkscape:window-y="-16"
     inkscape:window-maximized="1"
     inkscape:current-layer="layer1" />
  <g
     inkscape:groupmode="layer"
     id="layer2"
     inkscape:label="drop"
     transform="translate(0,-0.13330078)"
     style="display:inline" />
  <g
     inkscape:groupmode="layer"
     id="layer4"
     inkscape:label="shape"
     transform="translate(0,-0.13330078)"
     style="display:inline">
    <path
       style="fill:#000000;fill-opacity:1;fill-rule:nonzero;stroke:#000000;stroke-width:0;stroke-miterlimit:4;stroke-dasharray:none;stroke-dashoffset:0;stroke-opacity:1"
       d="m 196,56 c -50.01839,2e-6 -177,48.15792 -177,230 0,118.91904 116.44812,233 254,233 C 410.55188,519 527,404.91904 527,286 527,104.15792 400.01839,56.000002 350,56 c -17.23915,0 -77,3.041345 -77,53 0,44.11463 29.60255,66.09614 29,103 -0.60256,36.90387 -21.71005,37.04243 -29,37.0293 -7.28995,0.0131 -28.39744,-0.12543 -29,-37.0293 -0.60255,-36.90386 29,-58.88537 29,-103 0,-49.958654 -59.76085,-53 -77,-53 z m -25.78711,57.3125 c 36.90405,0 41.78124,27.42874 41.78125,78.50781 C 211.99413,210.93134 219.0751,270 273,270 c 53.9249,0 61.00587,-59.06866 61.00586,-78.17969 1e-5,-51.07907 4.8772,-78.50781 41.78125,-78.50781 C 406.71813,113.3125 497,145.07078 497,295 497,365.92134 417.20803,494 273,494 128.79197,494 49,365.92134 49,295 49,145.07078 139.28187,113.3125 170.21289,113.3125 Z"
       transform="translate(0,0.13330078)"
       id="path4563"
       inkscape:connector-curvature="0" />
  </g>
  <g
     inkscape:groupmode="layer"
     id="layer3"
     inkscape:label="c"
     transform="translate(0,-0.13330078)"
     style="display:inline">
    <path
       style="fill:#000000;fill-opacity:1;fill-rule:nonzero;stroke:#000000;stroke-width:0;stroke-miterlimit:4;stroke-dasharray:none;stroke-dashoffset:0;stroke-opacity:1"
       d="M 324.20117,287.74023 A 55,60 0 0 1 304.58984,315.02734 50,40 0 0 1 323,346 50,40 0 0 1 273,386 50,40 0 0 1 223,346 50,40 0 0 1 241.37695,315.04883 55,60 0 0 1 221.76367,287.80273 85,82.5 0 0 0 188,353.5 85,82.5 0 0 0 273,436 85,82.5 0 0 0 358,353.5 85,82.5 0 0 0 324.20117,287.74023 Z"
       id="path5481"
       transform="translate(0,0.13330078)"
       inkscape:connector-curvature="0" />
  </g>
  <g
     inkscape:groupmode="layer"
     id="layer1"
     inkscape:label="border"
     transform="translate(0,-0.13330078)"
     style="display:inline">
    <path
       style="fill:#000000;fill-opacity:1;fill-rule:nonzero;stroke:#000000;stroke-width:0;stroke-miterlimit:4;stroke-dasharray:none;stroke-dashoffset:0;stroke-opacity:1"
       d="M 273,0 A 273,273 0 0 0 0,273 273,273 0 0 0 273,546 273,273 0 0 0 546,273 273,273 0 0 0 273,0 Z m 0,8 A 265,265 0 0 1 538,273 265,265 0 0 1 273,538 265,265 0 0 1 8,273 265,265 0 0 1 273,8 Z"
       transform="translate(0,0.13330078)"
       id="path5452"
       inkscape:connector-curvature="0" />
  </g>
</svg>
